<svg xmlns="http://www.w3.org/2000/svg" xmlns:xlink="http://www.w3.org/1999/xlink" version="1.1" x="0px" y="0px" style="enable-background:new 0 0 3000 3000;" xml:space="preserve" viewBox="190.3 127.35 2703.6 2614.55">
<style type="text/css">
	.st0{fill:none;stroke:#9DACFF;stroke-width:4;stroke-linecap:round;}
	.st1{fill:none;stroke:#FF01A1;stroke-width:4;}
	.st2{fill:none;stroke:#FECB4B;stroke-width:4;}
	.st3{fill:none;stroke:#FF5BC3;stroke-width:4;}
	.st4{fill:none;stroke:#000000;stroke-width:6;stroke-linecap:round;}
	.st5{fill:#FF85D2;}
	.st6{fill:#FFFFFF;}
	.st7{fill:none;stroke:#000000;stroke-width:4;}
	.st8{fill:#6983FF;}
	.st9{fill:none;stroke:#FFFFFF;stroke-width:4;stroke-linecap:round;}
	.st10{fill:none;stroke:#FFFFFF;stroke-width:6;stroke-linecap:round;}
	.st11{fill:#FECB4B;}
	.st12{fill:none;stroke:#000000;stroke-width:6;}
	.st13{fill:none;stroke:#FF01A1;stroke-width:6;stroke-linecap:round;}
</style>
<g id="Background">
	<path class="st0" d="M199.2,1722.9l30.2,27.3"/>
	<path class="st0" d="M274.9,725.8l30.2,27.3"/>
	<path class="st0" d="M1607.4,1785.3l30.2,27.3"/>
	<path class="st0" d="M1084.9,731.5l-17.3,36.8"/>
	<path class="st0" d="M2891.9,2034.6l-17.3,36.8"/>
	<path class="st0" d="M385.8,2703.1l-17.3,36.8"/>
	<path class="st0" d="M2002.4,2614.9l-40.7,0.7"/>
	<path class="st0" d="M2520.2,2263.6l-17.3,36.8"/>
	<path class="st0" d="M2812.9,1306.9l40.7-1.6"/>
	<path class="st0" d="M2652.2,875.3l20.1,35.4"/>
	<path class="st0" d="M1078.9,1283.7l20.1,35.4"/>
	<path class="st0" d="M2336.8,166.7l2.9,40.6"/>
	<path class="st0" d="M433,202.8l32.9-24"/>
	<path class="st0" d="M1689.1,523.2l32.9-24"/>
	<path class="st1" d="M543.9,577.6l39.6,18.9c4.6-10.8,10.9-34,0-40.1C564.6,547.3,549.2,566.8,543.9,577.6z"/>
	<path class="st2" d="M1202,2138.2l33.5-28.3c-8-8.6-26.5-24-36.5-16.5C1183,2106.8,1194.4,2128.8,1202,2138.2z"/>
	<path class="st2" d="M681.1,1046.5l33.5-28.3c-8-8.6-26.5-24-36.5-16.5C662.1,1015.1,673.4,1037.2,681.1,1046.5z"/>
	<path class="st2" d="M2521.7,2733.9l33.5-28.3c-8-8.6-26.5-24-36.5-16.5C2502.7,2702.5,2514.1,2724.5,2521.7,2733.9z"/>
	<path class="st1" d="M2600,572.7l37.6,22.6c5.6-10.4,14.1-32.8,3.8-39.9C2623.6,544.6,2606.4,562.4,2600,572.7z"/>
	<path class="st1" d="M1858.9,150l37.6,22.6c5.6-10.4,14.1-32.8,3.8-39.9C1882.4,121.9,1865.2,139.8,1858.9,150z"/>
	<path class="st2" d="M1342.9,278.8l-28-3.4l-3,27.5h31V278.8z"/>
	<path class="st3" d="M1250.2,2700.1l-28-3.4l-3,27.5h31V2700.1z"/>
	<path class="st3" d="M223.2,1209.1l-28-3.4l-2.9,27.5h31V1209.1z"/>
	<path class="st2" d="M2246.4,875.5l-28-3.4l-2.9,27.5h31V875.5z"/>
	<path class="st2" d="M521.3,2149.4l-28-3.4l-3,27.5h31V2149.4z"/>
	<path class="st2" d="M2558.1,1947.4l-23.6,15.5l15.5,22.9l23.7-20L2558.1,1947.4z"/>
</g>
<g id="Girl">
	<path d="M1568.7,512c-181,0-327.8,173.5-327.8,387.6c0,82.7-117.9,291.2-80.6,354.1h818.1c37.3-62.9-82-271.5-82-354.1   C1896.4,685.5,1749.7,512,1568.7,512z"/>
	<path class="st4" d="M1787.9,632.2c1.7-41.9,20.2-129.3,80.7-143.7C1929.1,474.1,1840,578.3,1787.9,632.2z M1787.9,632.2   c69.4-59.3,204.9-162.9,191.4-103C1965.8,589.2,1846,622.8,1787.9,632.2z M1787.9,632.2c58.5,28.2,141.7,130.6,216.4,40.5   c74.8-90.1,160.5-79.7,167.7-29 M1787.9,632.2c59.7,5.8,149,54.2,189.8-19.4c18.6-33.6,52.6-85.6,102.4-98"/>
	<path class="st5" d="M1177.9,1183.5l843.1-16.1c78.1-3.8,255,32.2,337.7,206.7c-2.5-5.5,306.1,541.2,331.7,619.8   c83.8,157.4-41.8,404.1-280.9,319.4c-29-6.2-266.2-137.2-266.2-137.2l-1.8,121.1c0,0-50-27-143.4-19.4   c-93.4,7.7-201.8,107.2-201.8,107.2c21.1-191.4-200.9-95.5-271.7,0c0,0-66-68.3-136.5-80.1c-96.2-16.2-231.9,93-231.9,93V2278   l-214.8,56.4c-146.7,42.2-307.8,104.5-357.9,108.4c-191.1,14.9-402.8-180-244-396.6c43.4-46.9,421.6-555.5,421.6-555.5   C951.7,1250.1,1038.5,1183.5,1177.9,1183.5z"/>
	<path class="st6" d="M2021,1167.4l-843.1,16.1c-139.3,0-226.2,66.6-416.8,307.2c0,0-66.1,88.9-146.2,195.7l372.4,267.7l1211.4-46.5   l343-204.2c-89.1-163.5-184.5-332.3-183.1-329.2C2275.9,1199.6,2099.1,1163.6,2021,1167.4z"/>
	<path class="st7" d="M1177.9,1183.5l843.1-16.1c78.1-3.8,255,32.2,337.7,206.8c-2.2-4.5,93.6,165,183.1,329.2l-343,204.2   l-1211.4,46.5l-372.4-267.7c80.1-106.9,146.2-195.7,146.2-195.7C951.7,1250.1,1038.5,1183.5,1177.9,1183.5z"/>
	<path class="st8" d="M1156.2,2398.1V2278l-214.8,56.4l46-380.3l190.6-770.6l136.5-2.6l35,353.4l446.8,14.4l72.9-378.3l151.9-2.9   l177.8,740.2l-55.7,269.2l-1.8,120.5c0,0-50-27-143.4-19.4c-93.4,7.7-201.8,107.2-201.8,107.2c21.1-191.4-200.9-95.5-271.7,0   c0,0-66-68.3-136.5-80.1C1291.8,2288.9,1156.2,2398.1,1156.2,2398.1z"/>
	<path d="M1156.2,2278v120.1c0,0,135.7-109.2,231.9-93c70.4,11.8,136.5,80.1,136.5,80.1c70.8-95.5,292.8-191.4,271.7,0   c0,0,108.3-99.6,201.8-107.2c93.4-7.7,143.4,19.4,143.4,19.4l1.8-140.2l-986.9-21.7V2278z"/>
	<path d="M2250.3,1877.5l289.7-173.3l-276.7,209.6l-26.1-11.2L2250.3,1877.5z"/>
	<path d="M893.8,1884l-276-194.4l260.3,229.7l26.8-9.2L893.8,1884z"/>
	<path class="st9" d="M1746.9,1627.2c-1.8-22.4,0.3-66.2,23.3-62.1c28.7,5.1,65.8,62.1,97.7,40.8c15.9-12.8-1.4-66.4,10.9-81.7"/>
	<path class="st9" d="M1296.5,2116.4c-1.8-22.4,0.3-66.2,23.3-62.1c28.7,5.1,65.8,62.1,97.7,40.8c15.9-12.8-1.4-66.4,10.9-81.7"/>
	<path class="st9" d="M1810.8,2013.3c-1.8-22.4,0.3-66.2,23.3-62.1c28.7,5.1,65.8,62.1,97.7,40.8c15.9-12.8-1.4-66.4,10.9-81.7"/>
	<path class="st9" d="M1162,1449.7c-1.8-22.4,0.3-66.2,23.3-62.1c28.7,5.1,65.8,62.1,97.7,40.8c15.9-12.8-1.4-66.4,10.9-81.7"/>
	<path class="st9" d="M2246.9,1730.3c-1.8-22.4,0.3-66.2,23.3-62.1c28.7,5.1,65.8,62.1,97.7,40.8c15.9-12.8-1.4-66.4,10.9-81.7"/>
	<path class="st10" d="M1877,1276.9c-1.8-22.4,0.3-66.2,23.3-62.1c28.7,5.1,65.8,62.1,97.7,40.8c15.9-12.8-1.4-66.4,10.9-81.7"/>
	<path class="st10" d="M1173.1,1291.6c-1.8-22.4,0.3-66.2,23.3-62.1c28.7,5.1,65.8,62.1,97.6,40.8c15.9-12.8-1.4-66.4,10.9-81.7"/>
	<path class="st11" d="M1332.2,972.7l2.5,10.3c4.3,17.7,15.7,32.8,31.5,41.8l0,0l0,0c-15.8,9-27.2,24.1-31.5,41.8l-2.5,10.3   l-2.5-10.3c-4.3-17.7-15.7-32.8-31.5-41.8l0,0l0,0c15.8-9,27.2-24.1,31.5-41.8L1332.2,972.7z"/>
	<path class="st5" d="M1369.7,842.7l-26.4-46.5c8.5-130.7,88.9-167.5,166.8-167.5c16,51.8,160.9,182.6,212.4,201.1l11.3,51.8   c47.1-38.9,111.5-32,127.1,14.8c21.1,82.9-46.2,107.3-119.3,104.2v75.8v130.6c0,0-26.8,33.5-57,48.6   c-101.5,56.3-197.2-12.2-221.9-48.6v-120.6c-30,0-92.9,3.8-119.3-49C1316.2,983.2,1344.1,888.7,1369.7,842.7z"/>
	<path class="st11" d="M1780.3,972.7l2.5,10.3c4.3,17.7,15.7,32.8,31.5,41.8l0,0l0,0c-15.8,9-27.2,24.1-31.5,41.8l-2.5,10.3   l-2.5-10.3c-4.3-17.7-15.7-32.8-31.5-41.8l0,0l0,0c15.8-9,27.2-24.1,31.5-41.8L1780.3,972.7z"/>
	<path d="M1462.1,1138.7l93.8-61.9c0,0-29.1,5-47.7,6.8c-18.1,1.8-46.2,2.7-46.2,2.7V1138.7z"/>
	<path class="st4" d="M1468,798.9c-9.2,47.4,27.1,75.2,27.1,75.2l-43.3,76.5h51.1"/>
	<path class="st4" d="M1557.8,798.3c15-2.6,30.2-2.3,40.7,0.7"/>
	<path class="st4" d="M1396.7,789.3c15-2.6,30.2-2.3,40.7,0.7"/>
	<path class="st4" d="M1534.4,997.4c13.5-7.1,25.3-16.7,31.8-25.4"/>
	<path class="st4" d="M1766.8,930.2l54.4-44.3"/>
	<path class="st4" d="M1806.6,901.9l28.9,28.3"/>
	<circle cx="1580.3" cy="859.2" r="9.1"/>
	<circle cx="1419.2" cy="850.2" r="9.1"/>
</g>
<g id="Book">
	<path class="st6" d="M2419.3,1227.1l-45.9,159.3l-823,77.2v-77.2l837.7-219.2l-25.2,70.2L2419.3,1227.1z"/>
	<path class="st12" d="M1550.4,1386.3v77.2l823-77.2l45.9-159.3l-56.4,10.3 M1550.4,1386.3l837.7-219.2l-25.2,70.2 M1550.4,1386.3   l812.4-148.9"/>
	<path class="st6" d="M696.2,1227.1l45.9,159.3l823,77.2v-77.2l-837.7-219.2l25.2,70.2L696.2,1227.1z"/>
	<path class="st12" d="M1565.1,1386.3v77.2l-823-77.2l-45.9-159.3l56.4,10.3 M1565.1,1386.3l-837.7-219.2l25.2,70.2 M1565.1,1386.3   l-812.4-148.9"/>
	<path class="st8" d="M2525.1,1275l-977.6,99.3l-972-120.5l407.2,933.6l564.9,108.6l536.9-55.9L2525.1,1275z"/>
	<path class="st10" d="M1362.3,1634.4c83-0.8-6.1-143.9-40.3-185.8 M1018.2,1953.4c24.2,19.5,52.6,29.6,85.3,24.4   c154.6-24.4,31.2-332-44.2-352.5c-75.4-20.6,19,168.3,101.3,218.5c65.8,40.2,98,9.1,105.8-11.4c8.9-37.8,10.2-126.7-55.6-179.7   c-82.2-66.2,9.1,105.1,80.7,107.4c71.6,2.3,32-112.7-21.3-182c-53.3-69.3-63.9-60.2-65.5-53.3c-1.3,5.8,53.7,81.8,121.3,103.7"/>
	<path class="st10" d="M2087.4,1613.2c-13.8,42.7-73.3-26.5-89.4-50.9 M2307.9,1487.2c6.1,15.7,6.8,31.9-1.2,48   c-37.6,75.8-176.4-37.7-174.8-79.9c1.6-42.2,83.8,37.1,96.4,87.7c10.1,40.5-11.2,52.1-23,52.8c-21-1.5-67.1-15.3-83.8-57.8   c-20.9-53.2,52.8,21.7,42.4,59c-10.4,37.3-63.4-1.7-90.5-40.5c-27.1-38.7-20.7-42.8-16.9-42.4c3.2,0.3,33.5,41,33.9,79.4"/>
	<path class="st10" d="M1628.2,1453.9l-20.8,750.5 M1545.1,1453.9l-126.8,733.9"/>
</g>
<g id="Hands">
	<path d="M1851.6,2061.9l91.3,19.9l206.4,97.1l-215.3-133.9l-98.2-21.2C1824.2,2044,1841.5,2057.6,1851.6,2061.9z"/>
	<path d="M1800,1968.4l116.6,48.3l35.1-14.5l-162.9-68C1776.3,1950.4,1791.1,1963.8,1800,1968.4z"/>
	<path class="st13" d="M610,2108.6l77.4-13.7l77.4-13.7l102.7-19.8"/>
	<path class="st13" d="M2511.6,2010.9l-73.4-28.3l-73.4-28.2l-97.1-39"/>
	<path class="st5" d="M2154.8,2181.8l-217.1-124.5c-69.2-8.4-144.8-16.2-122.6-44.2c15.7-19.8,72.1-10.6,103.4-12l-110.3-42.3   c-34.5-12.1-43.4-39.7-21.3-52.5c10.2-3.8,14.6-3.7,22.1-3.1c0,0,41.9,8.7,49.4,10.9l-68.7-29.3c-16.7-7.4-36-30.3-5.1-45   c3.1-1.3,7.5-1.5,11.7-0.9c0,0,26.8,4.7,36.2,7.8l-24.5-12.8c-21.7-17.3-12.8-41.1,35.4-31.2c41.3,8.4,218.3,23.1,218.3,23.1   l-34.8-78c-10.8-29.3,15.8-70.7,55-26.1l161,188.3l62.3,29L2154.8,2181.8z"/>
	<path class="st13" d="M1881.5,1920.9l97.5,34.7"/>
	<path class="st13" d="M1866.3,1854.9l137.1,45.4"/>
	<path class="st13" d="M2246.4,1958.9l-41.6,138.3"/>
	<path class="st13" d="M1920.1,2004.9l86.7,25.6"/>
	<path d="M1277.1,2300.7l-93.2-6.3l-236,36.8l254.8-69.6l100.2,7C1308.4,2291.1,1288,2299.4,1277.1,2300.7z"/>
	<path d="M1352.7,2225.2l-125.5,13.9l-29.6-23.7l175.4-19.9C1380.5,2214.6,1362.6,2223.2,1352.7,2225.2z"/>
	<path class="st5" d="M940.1,2334.3l255.7-62.1c68.8,11.2,143.5,24.8,130.1-8.3c-9.6-23.4-66.3-30.3-95.9-40.3l117.8-9.9   c36.5-2,52.7-26.1,35.1-44.5c-8.7-6.5-13-7.7-20.4-9.2c0,0-42.6-3.3-50.5-3.3l74.2-9c18.1-2.5,43-19.1,17.5-41.8   c-2.6-2.1-6.8-3.5-11-4.1c0,0-27.1-3-37-2.6l27.1-5.5c25.7-10.6,23.8-35.9-25.3-39.9c-42.1-3.4-216.1-38.6-216.1-38.6l55.1-65.2   c18.5-25.2,4.6-72.3-45.6-40.4l-207.1,136l-67.9,10.5L940.1,2334.3z"/>
	<path class="st13" d="M1287.7,2156.9l-103.3,6.1"/>
	<path class="st13" d="M1320.7,2097.7l-144.3,5.4"/>
	<path class="st13" d="M1227.2,2226.8l-90.4,0.4"/>
	<path class="st13" d="M897.2,2085l41.6,138.3"/>
</g>
</svg>